<svg xmlns="http://www.w3.org/2000/svg" version="1.1" xmlns:xlink="http://www.w3.org/1999/xlink" xmlns:svgjs="http://svgjs.dev/svgjs" viewBox="0 0 1422 800"><circle r="24" cx="41" cy="689" fill="hsl(142, 50%, 50%)" opacity="0.23"></circle><circle r="26.5" cx="40" cy="608" fill="hsl(142, 50%, 50%)" opacity="0.97"></circle><circle r="22.5" cx="679" cy="100" stroke-width="2" stroke="hsl(135, 50%, 50%)" fill="none" opacity="0.34"></circle><circle r="22" cx="279" cy="274" stroke-width="2" stroke="hsl(129, 50%, 50%)" fill="none" opacity="0.25"></circle><circle r="18.5" cx="499" cy="576" fill="hsl(116, 50%, 50%)" opacity="0.32"></circle><circle r="22.5" cx="877" cy="689" stroke-width="2" stroke="hsl(134, 50%, 50%)" fill="none" opacity="0.19"></circle><circle r="17" cx="1386" cy="197" stroke-width="2" stroke="hsl(119, 50%, 50%)" fill="none" opacity="0.83"></circle><circle r="21" cx="738" cy="320" fill="hsl(126, 50%, 50%)" opacity="0.31"></circle><circle r="22.5" cx="709" cy="403" fill="hsl(124, 50%, 50%)" opacity="0.97"></circle><circle r="16.5" cx="629" cy="765" fill="hsl(120, 50%, 50%)" opacity="0.34"></circle><circle r="19" cx="420" cy="447" fill="hsl(119, 50%, 50%)" opacity="0.47"></circle><circle r="22.5" cx="409" cy="122" fill="hsl(124, 50%, 50%)" opacity="0.32"></circle><circle r="25.5" cx="1009" cy="512" stroke-width="2" stroke="hsl(140, 50%, 50%)" fill="none" opacity="0.59"></circle><circle r="22" cx="260" cy="384" stroke-width="2" stroke="hsl(131, 50%, 50%)" fill="none" opacity="0.23"></circle><circle r="24.5" cx="1186" cy="113" fill="hsl(135, 50%, 50%)" opacity="0.94"></circle><circle r="26" cx="1017" cy="600" stroke-width="2" stroke="hsl(140, 50%, 50%)" fill="none" opacity="0.88"></circle><circle r="20" cx="409" cy="363" stroke-width="2" stroke="hsl(119, 50%, 50%)" fill="none" opacity="0.40"></circle><circle r="24.5" cx="953" cy="360" fill="hsl(137, 50%, 50%)" opacity="1.00"></circle><circle r="23.5" cx="954" cy="752" fill="hsl(137, 50%, 50%)" opacity="0.35"></circle><circle r="24" cx="876" cy="412" stroke-width="2" stroke="hsl(134, 50%, 50%)" fill="none" opacity="0.54"></circle><circle r="18" cx="557" cy="438" fill="hsl(117, 50%, 50%)" opacity="0.65"></circle><circle r="18" cx="268" cy="35" fill="hsl(125, 50%, 50%)" opacity="0.92"></circle><circle r="24" cx="264" cy="185" stroke-width="2" stroke="hsl(131, 50%, 50%)" fill="none" opacity="0.93"></circle><circle r="24" cx="729" cy="37" fill="hsl(141, 50%, 50%)" opacity="0.94"></circle><circle r="23.5" cx="1238" cy="271" stroke-width="2" stroke="hsl(135, 50%, 50%)" fill="none" opacity="0.33"></circle><circle r="21.5" cx="724" cy="496" stroke-width="2" stroke="hsl(125, 50%, 50%)" fill="none" opacity="0.21"></circle><circle r="18.5" cx="508" cy="669" stroke-width="2" stroke="hsl(116, 50%, 50%)" fill="none" opacity="0.44"></circle><circle r="27.5" cx="40" cy="438" fill="hsl(142, 50%, 50%)" opacity="0.47"></circle><circle r="17" cx="469" cy="762" fill="hsl(116, 50%, 50%)" opacity="0.27"></circle><circle r="25.5" cx="1096" cy="623" stroke-width="2" stroke="hsl(141, 50%, 50%)" fill="none" opacity="0.69"></circle><circle r="25.5" cx="41" cy="184" stroke-width="2" stroke="hsl(142, 50%, 50%)" fill="none" opacity="0.79"></circle><circle r="27.5" cx="116" cy="481" stroke-width="2" stroke="hsl(140, 50%, 50%)" fill="none" opacity="0.76"></circle><circle r="19" cx="618" cy="249" fill="hsl(119, 50%, 50%)" opacity="0.34"></circle><circle r="23" cx="794" cy="454" fill="hsl(129, 50%, 50%)" opacity="0.58"></circle><circle r="20" cx="439" cy="205" fill="hsl(118, 50%, 50%)" opacity="0.30"></circle><circle r="26" cx="119" cy="389" stroke-width="2" stroke="hsl(140, 50%, 50%)" fill="none" opacity="0.77"></circle><circle r="21.5" cx="791" cy="195" stroke-width="2" stroke="hsl(129, 50%, 50%)" fill="none" opacity="0.52"></circle><circle r="20.5" cx="716" cy="240" fill="hsl(125, 50%, 50%)" opacity="0.54"></circle><circle r="22.5" cx="270" cy="566" stroke-width="2" stroke="hsl(129, 50%, 50%)" fill="none" opacity="0.98"></circle><circle r="21" cx="1311" cy="239" stroke-width="2" stroke="hsl(129, 50%, 50%)" fill="none" opacity="0.67"></circle><circle r="19" cx="1382" cy="606" stroke-width="2" stroke="hsl(119, 50%, 50%)" fill="none" opacity="0.44"></circle><circle r="23" cx="1295" cy="757" stroke-width="2" stroke="hsl(129, 50%, 50%)" fill="none" opacity="0.14"></circle><circle r="27.5" cx="119" cy="301" stroke-width="2" stroke="hsl(140, 50%, 50%)" fill="none" opacity="0.64"></circle><circle r="27.5" cx="40" cy="524" fill="hsl(142, 50%, 50%)" opacity="0.60"></circle><circle r="20" cx="466" cy="296" fill="hsl(117, 50%, 50%)" opacity="0.97"></circle><circle r="19" cx="668" cy="701" fill="hsl(123, 50%, 50%)" opacity="0.10"></circle><circle r="27.5" cx="1114" cy="757" stroke-width="2" stroke="hsl(140, 50%, 50%)" fill="none" opacity="0.56"></circle><circle r="18" cx="55" cy="34" stroke-width="2" stroke="hsl(126, 50%, 50%)" fill="none" opacity="0.56"></circle><circle r="20" cx="652" cy="545" stroke-width="2" stroke="hsl(121, 50%, 50%)" fill="none" opacity="0.97"></circle><circle r="26.5" cx="1154" cy="484" fill="hsl(140, 50%, 50%)" opacity="0.45"></circle><circle r="25.5" cx="1019" cy="127" fill="hsl(140, 50%, 50%)" opacity="0.46"></circle><circle r="17.5" cx="427" cy="620" stroke-width="2" stroke="hsl(118, 50%, 50%)" fill="none" opacity="0.23"></circle><circle r="20.5" cx="365" cy="40" fill="hsl(125, 50%, 50%)" opacity="0.48"></circle><circle r="19" cx="571" cy="520" fill="hsl(117, 50%, 50%)" opacity="0.54"></circle><circle r="24.5" cx="1047" cy="688" fill="hsl(141, 50%, 50%)" opacity="0.43"></circle><circle r="24" cx="758" cy="124" stroke-width="2" stroke="hsl(136, 50%, 50%)" fill="none" opacity="0.57"></circle><circle r="18" cx="1382" cy="688" stroke-width="2" stroke="hsl(119, 50%, 50%)" fill="none" opacity="0.23"></circle><circle r="18.5" cx="495" cy="385" fill="hsl(116, 50%, 50%)" opacity="0.29"></circle><circle r="23" cx="807" cy="644" stroke-width="2" stroke="hsl(130, 50%, 50%)" fill="none" opacity="0.55"></circle><circle r="18.5" cx="491" cy="486" stroke-width="2" stroke="hsl(116, 50%, 50%)" fill="none" opacity="0.73"></circle><circle r="20" cx="1225" cy="37" stroke-width="2" stroke="hsl(128, 50%, 50%)" fill="none" opacity="0.82"></circle><circle r="21" cx="1296" cy="398" stroke-width="2" stroke="hsl(129, 50%, 50%)" fill="none" opacity="0.37"></circle><circle r="27.5" cx="118" cy="571" stroke-width="2" stroke="hsl(140, 50%, 50%)" fill="none" opacity="0.87"></circle><circle r="24.5" cx="881" cy="211" fill="hsl(134, 50%, 50%)" opacity="0.29"></circle><circle r="23" cx="1236" cy="695" stroke-width="2" stroke="hsl(135, 50%, 50%)" fill="none" opacity="0.27"></circle><circle r="28" cx="127" cy="756" stroke-width="2" stroke="hsl(140, 50%, 50%)" fill="none" opacity="0.53"></circle><circle r="25.5" cx="1059" cy="41" fill="hsl(138, 50%, 50%)" opacity="0.45"></circle><circle r="17.5" cx="430" cy="697" stroke-width="2" stroke="hsl(118, 50%, 50%)" fill="none" opacity="0.32"></circle><circle r="27" cx="1086" cy="539" fill="hsl(141, 50%, 50%)" opacity="0.72"></circle><circle r="24.5" cx="1208" cy="346" fill="hsl(136, 50%, 50%)" opacity="0.89"></circle><circle r="19.5" cx="420" cy="537" fill="hsl(119, 50%, 50%)" opacity="0.84"></circle><circle r="26.5" cx="848" cy="125" stroke-width="2" stroke="hsl(139, 50%, 50%)" fill="none" opacity="0.56"></circle><circle r="26.5" cx="193" cy="522" fill="hsl(136, 50%, 50%)" opacity="0.94"></circle><circle r="22.5" cx="877" cy="602" fill="hsl(134, 50%, 50%)" opacity="0.66"></circle><circle r="26" cx="978" cy="203" fill="hsl(139, 50%, 50%)" opacity="0.99"></circle><circle r="23.5" cx="199" cy="334" stroke-width="2" stroke="hsl(136, 50%, 50%)" fill="none" opacity="0.52"></circle><circle r="23.5" cx="501" cy="130" fill="hsl(124, 50%, 50%)" opacity="0.52"></circle><circle r="26.5" cx="1069" cy="214" fill="hsl(141, 50%, 50%)" opacity="0.55"></circle><circle r="27" cx="40" cy="268" stroke-width="2" stroke="hsl(142, 50%, 50%)" fill="none" opacity="0.18"></circle><circle r="26.5" cx="1137" cy="392" fill="hsl(140, 50%, 50%)" opacity="0.53"></circle><circle r="27.5" cx="932" cy="127" fill="hsl(140, 50%, 50%)" opacity="0.38"></circle><circle r="24.5" cx="117" cy="112" stroke-width="2" stroke="hsl(135, 50%, 50%)" fill="none" opacity="0.55"></circle><circle r="26" cx="978" cy="44" fill="hsl(140, 50%, 50%)" opacity="0.79"></circle><circle r="18" cx="1378" cy="113" stroke-width="2" stroke="hsl(119, 50%, 50%)" fill="none" opacity="0.30"></circle><circle r="16.5" cx="1385" cy="37" fill="hsl(116, 50%, 50%)" opacity="0.93"></circle><circle r="23" cx="867" cy="507" fill="hsl(134, 50%, 50%)" opacity="0.31"></circle><circle r="20.5" cx="344" cy="509" fill="hsl(123, 50%, 50%)" opacity="1.00"></circle><circle r="20" cx="378" cy="275" stroke-width="2" stroke="hsl(120, 50%, 50%)" fill="none" opacity="0.46"></circle><circle r="25" cx="1230" cy="524" fill="hsl(135, 50%, 50%)" opacity="0.79"></circle><circle r="23.5" cx="181" cy="164" stroke-width="2" stroke="hsl(136, 50%, 50%)" fill="none" opacity="0.76"></circle><circle r="25.5" cx="936" cy="275" stroke-width="2" stroke="hsl(137, 50%, 50%)" fill="none" opacity="0.61"></circle><circle r="21.5" cx="798" cy="370" stroke-width="2" stroke="hsl(129, 50%, 50%)" fill="none" opacity="0.25"></circle><circle r="22" cx="800" cy="550" fill="hsl(130, 50%, 50%)" opacity="0.51"></circle><circle r="27.5" cx="40" cy="353" fill="hsl(142, 50%, 50%)" opacity="0.25"></circle><circle r="17.5" cx="381" cy="763" fill="hsl(120, 50%, 50%)" opacity="0.48"></circle><circle r="24" cx="1231" cy="615" stroke-width="2" stroke="hsl(135, 50%, 50%)" fill="none" opacity="0.15"></circle><circle r="19" cx="577" cy="604" stroke-width="2" stroke="hsl(117, 50%, 50%)" fill="none" opacity="0.58"></circle><circle r="21" cx="1302" cy="322" stroke-width="2" stroke="hsl(129, 50%, 50%)" fill="none" opacity="0.45"></circle><circle r="18.5" cx="659" cy="626" fill="hsl(121, 50%, 50%)" opacity="0.29"></circle><circle r="19" cx="658" cy="319" fill="hsl(121, 50%, 50%)" opacity="0.79"></circle><circle r="20.5" cx="594" cy="106" stroke-width="2" stroke="hsl(130, 50%, 50%)" fill="none" opacity="0.60"></circle><circle r="18.5" cx="610" cy="380" fill="hsl(119, 50%, 50%)" opacity="0.60"></circle><circle r="21.5" cx="224" cy="100" fill="hsl(130, 50%, 50%)" opacity="0.18"></circle><circle r="20" cx="875" cy="766" fill="hsl(134, 50%, 50%)" opacity="0.98"></circle><circle r="20" cx="672" cy="175" stroke-width="2" stroke="hsl(126, 50%, 50%)" fill="none" opacity="0.80"></circle><circle r="23.5" cx="542" cy="41" fill="hsl(132, 50%, 50%)" opacity="0.24"></circle><circle r="23.5" cx="1106" cy="308" fill="hsl(141, 50%, 50%)" opacity="0.28"></circle><circle r="20.5" cx="635" cy="34" stroke-width="2" stroke="hsl(137, 50%, 50%)" fill="none" opacity="0.12"></circle><circle r="23" cx="1302" cy="481" stroke-width="2" stroke="hsl(129, 50%, 50%)" fill="none" opacity="0.82"></circle><circle r="22" cx="36" cy="106" fill="hsl(134, 50%, 50%)" opacity="0.90"></circle><circle r="25" cx="196" cy="610" fill="hsl(136, 50%, 50%)" opacity="0.98"></circle><circle r="27" cx="1019" cy="287" fill="hsl(140, 50%, 50%)" opacity="0.74"></circle><circle r="25" cx="1153" cy="678" stroke-width="2" stroke="hsl(140, 50%, 50%)" fill="none" opacity="0.61"></circle><circle r="21" cx="326" cy="340" fill="hsl(125, 50%, 50%)" opacity="0.56"></circle><circle r="19.5" cx="161" cy="37" fill="hsl(125, 50%, 50%)" opacity="0.93"></circle><circle r="24.5" cx="1231" cy="189" fill="hsl(135, 50%, 50%)" opacity="0.77"></circle><circle r="22.5" cx="271" cy="663" stroke-width="2" stroke="hsl(129, 50%, 50%)" fill="none" opacity="0.53"></circle><circle r="22" cx="216" cy="763" stroke-width="2" stroke="hsl(135, 50%, 50%)" fill="none" opacity="0.58"></circle><circle r="18.5" cx="1314" cy="162" fill="hsl(126, 50%, 50%)" opacity="0.81"></circle><circle r="21.5" cx="339" cy="424" fill="hsl(123, 50%, 50%)" opacity="0.80"></circle><circle r="23" cx="1031" cy="763" stroke-width="2" stroke="hsl(140, 50%, 50%)" fill="none" opacity="0.97"></circle><circle r="19.5" cx="741" cy="678" stroke-width="2" stroke="hsl(126, 50%, 50%)" fill="none" opacity="0.11"></circle><circle r="25.5" cx="1049" cy="366" fill="hsl(141, 50%, 50%)" opacity="0.46"></circle><circle r="18.5" cx="1383" cy="280" fill="hsl(119, 50%, 50%)" opacity="0.12"></circle><circle r="27.5" cx="813" cy="43" fill="hsl(143, 50%, 50%)" opacity="0.46"></circle><circle r="22.5" cx="297" cy="755" stroke-width="2" stroke="hsl(127, 50%, 50%)" fill="none" opacity="0.17"></circle><circle r="20.5" cx="350" cy="682" fill="hsl(123, 50%, 50%)" opacity="0.81"></circle><circle r="20.5" cx="642" cy="460" fill="hsl(120, 50%, 50%)" opacity="0.42"></circle><circle r="20.5" cx="731" cy="589" stroke-width="2" stroke="hsl(125, 50%, 50%)" fill="none" opacity="0.61"></circle><circle r="19" cx="1382" cy="523" fill="hsl(119, 50%, 50%)" opacity="0.40"></circle><circle r="22" cx="1201" cy="764" fill="hsl(136, 50%, 50%)" opacity="0.48"></circle><circle r="21.5" cx="1309" cy="660" stroke-width="2" stroke="hsl(129, 50%, 50%)" fill="none" opacity="0.28"></circle><circle r="24" cx="266" cy="475" stroke-width="2" stroke="hsl(131, 50%, 50%)" fill="none" opacity="0.11"></circle><circle r="27" cx="896" cy="42" fill="hsl(142, 50%, 50%)" opacity="0.13"></circle><circle r="21" cx="348" cy="197" fill="hsl(123, 50%, 50%)" opacity="0.51"></circle><circle r="19" cx="1380" cy="440" stroke-width="2" stroke="hsl(119, 50%, 50%)" fill="none" opacity="0.84"></circle><circle r="26" cx="117" cy="661" stroke-width="2" stroke="hsl(140, 50%, 50%)" fill="none" opacity="0.42"></circle><circle r="23.5" cx="43" cy="764" stroke-width="2" stroke="hsl(142, 50%, 50%)" fill="none" opacity="0.44"></circle><circle r="25.5" cx="1220" cy="433" fill="hsl(136, 50%, 50%)" opacity="0.26"></circle><circle r="18" cx="580" cy="178" stroke-width="2" stroke="hsl(121, 50%, 50%)" fill="none" opacity="0.82"></circle><circle r="26.5" cx="958" cy="661" stroke-width="2" stroke="hsl(138, 50%, 50%)" fill="none" opacity="0.68"></circle><circle r="18" cx="521" cy="230" fill="hsl(116, 50%, 50%)" opacity="0.83"></circle><circle r="21.5" cx="798" cy="750" stroke-width="2" stroke="hsl(129, 50%, 50%)" fill="none" opacity="0.16"></circle><circle r="25.5" cx="190" cy="432" fill="hsl(136, 50%, 50%)" opacity="0.76"></circle><circle r="25" cx="998" cy="427" fill="hsl(139, 50%, 50%)" opacity="0.29"></circle><circle r="18.5" cx="718" cy="764" fill="hsl(125, 50%, 50%)" opacity="0.56"></circle><circle r="25.5" cx="942" cy="561" fill="hsl(137, 50%, 50%)" opacity="0.88"></circle><circle r="22.5" cx="192" cy="692" stroke-width="2" stroke="hsl(136, 50%, 50%)" fill="none" opacity="0.43"></circle><circle r="19.5" cx="1269" cy="107" fill="hsl(128, 50%, 50%)" opacity="0.11"></circle><circle r="24.5" cx="1147" cy="185" stroke-width="2" stroke="hsl(140, 50%, 50%)" fill="none" opacity="0.27"></circle><circle r="19" cx="1381" cy="361" fill="hsl(119, 50%, 50%)" opacity="0.63"></circle><circle r="23.5" cx="455" cy="43" fill="hsl(128, 50%, 50%)" opacity="0.12"></circle><circle r="19" cx="1310" cy="41" fill="hsl(123, 50%, 50%)" opacity="0.78"></circle><circle r="19" cx="546" cy="758" stroke-width="2" stroke="hsl(117, 50%, 50%)" fill="none" opacity="0.25"></circle><circle r="23" cx="934" cy="468" fill="hsl(137, 50%, 50%)" opacity="0.83"></circle><circle r="23.5" cx="1305" cy="569" stroke-width="2" stroke="hsl(129, 50%, 50%)" fill="none" opacity="0.75"></circle><circle r="23.5" cx="1141" cy="40" fill="hsl(134, 50%, 50%)" opacity="0.42"></circle><circle r="23.5" cx="317" cy="113" stroke-width="2" stroke="hsl(127, 50%, 50%)" fill="none" opacity="0.53"></circle><circle r="26" cx="115" cy="212" stroke-width="2" stroke="hsl(140, 50%, 50%)" fill="none" opacity="0.66"></circle><circle r="25.5" cx="1099" cy="120" stroke-width="2" stroke="hsl(139, 50%, 50%)" fill="none" opacity="0.17"></circle><circle r="19.5" cx="555" cy="314" stroke-width="2" stroke="hsl(117, 50%, 50%)" fill="none" opacity="0.36"></circle><circle r="27" cx="1076" cy="452" fill="hsl(141, 50%, 50%)" opacity="0.65"></circle><circle r="24.5" cx="1162" cy="577" stroke-width="2" stroke="hsl(139, 50%, 50%)" fill="none" opacity="0.89"></circle><circle r="22" cx="810" cy="273" fill="hsl(130, 50%, 50%)" opacity="0.11"></circle><circle r="23.5" cx="872" cy="323" fill="hsl(134, 50%, 50%)" opacity="0.79"></circle><circle r="18.5" cx="589" cy="686" stroke-width="2" stroke="hsl(118, 50%, 50%)" fill="none" opacity="0.38"></circle><circle r="26" cx="196" cy="248" stroke-width="2" stroke="hsl(136, 50%, 50%)" fill="none" opacity="0.96"></circle><circle r="17.5" cx="1379" cy="763" stroke-width="2" stroke="hsl(119, 50%, 50%)" fill="none" opacity="0.14"></circle><circle r="21.5" cx="345" cy="598" fill="hsl(123, 50%, 50%)" opacity="0.98"></circle><circle r="24" cx="1162" cy="261" stroke-width="2" stroke="hsl(139, 50%, 50%)" fill="none" opacity="0.86"></circle></svg>