<svg xmlns="http://www.w3.org/2000/svg" version="1.1" xmlns:xlink="http://www.w3.org/1999/xlink" xmlns:svgjs="http://svgjs.dev/svgjs" viewBox="0 0 800 800"><circle r="17.5" cx="698" cy="673" stroke-width="2" stroke="hsl(142, 50%, 50%)" fill="none" opacity="0.48"></circle><circle r="11.5" cx="394" cy="93" stroke-width="2" stroke="hsl(103, 50%, 50%)" fill="none" opacity="0.58"></circle><circle r="14.5" cx="466" cy="635" stroke-width="2" stroke="hsl(124, 50%, 50%)" fill="none" opacity="0.42"></circle><circle r="15.5" cx="499" cy="159" stroke-width="2" stroke="hsl(123, 50%, 50%)" fill="none" opacity="0.92"></circle><circle r="14" cx="266" cy="99" stroke-width="2" stroke="hsl(113, 50%, 50%)" fill="none" opacity="0.77"></circle><circle r="14" cx="773" cy="238" stroke-width="2" stroke="hsl(126, 50%, 50%)" fill="none" opacity="0.44"></circle><circle r="11" cx="332" cy="600" fill="hsl(102, 50%, 50%)" opacity="0.85"></circle><circle r="15.5" cx="151" cy="641" fill="hsl(118, 50%, 50%)" opacity="0.86"></circle><circle r="14.5" cx="434" cy="271" stroke-width="2" stroke="hsl(118, 50%, 50%)" fill="none" opacity="0.46"></circle><circle r="21" cx="715" cy="147" stroke-width="2" stroke="hsl(147, 50%, 50%)" fill="none" opacity="0.32"></circle><circle r="19" cx="651" cy="135" fill="hsl(151, 50%, 50%)" opacity="0.67"></circle><circle r="17.5" cx="488" cy="226" fill="hsl(128, 50%, 50%)" opacity="0.19"></circle><circle r="10" cx="252" cy="526" fill="hsl(97, 50%, 50%)" opacity="0.73"></circle><circle r="12.5" cx="198" cy="582" stroke-width="2" stroke="hsl(107, 50%, 50%)" fill="none" opacity="0.56"></circle><circle r="19.5" cx="611" cy="295" stroke-width="2" stroke="hsl(145, 50%, 50%)" fill="none" opacity="0.30"></circle><circle r="14" cx="773" cy="367" stroke-width="2" stroke="hsl(126, 50%, 50%)" fill="none" opacity="0.57"></circle><circle r="10.5" cx="221" cy="235" stroke-width="2" stroke="hsl(101, 50%, 50%)" fill="none" opacity="0.49"></circle><circle r="18" cx="721" cy="277" stroke-width="2" stroke="hsl(137, 50%, 50%)" fill="none" opacity="0.97"></circle><circle r="20.5" cx="32" cy="174" fill="hsl(143, 50%, 50%)" opacity="0.14"></circle><circle r="9.5" cx="267" cy="192" stroke-width="2" stroke="hsl(96, 50%, 50%)" fill="none" opacity="0.97"></circle><circle r="14" cx="298" cy="33" fill="hsl(113, 50%, 50%)" opacity="0.86"></circle><circle r="18.5" cx="548" cy="194" stroke-width="2" stroke="hsl(137, 50%, 50%)" fill="none" opacity="0.95"></circle><circle r="18" cx="627" cy="774" stroke-width="2" stroke="hsl(146, 50%, 50%)" fill="none" opacity="0.31"></circle><circle r="17.5" cx="508" cy="354" stroke-width="2" stroke="hsl(131, 50%, 50%)" fill="none" opacity="0.47"></circle><circle r="19.5" cx="657" cy="614" stroke-width="2" stroke="hsl(146, 50%, 50%)" fill="none" opacity="0.84"></circle><circle r="13" cx="774" cy="538" fill="hsl(126, 50%, 50%)" opacity="0.95"></circle><circle r="14.5" cx="144" cy="316" fill="hsl(121, 50%, 50%)" opacity="0.34"></circle><circle r="17.5" cx="715" cy="462" fill="hsl(137, 50%, 50%)" opacity="0.13"></circle><circle r="10" cx="286" cy="655" stroke-width="2" stroke="hsl(97, 50%, 50%)" fill="none" opacity="0.83"></circle><circle r="10" cx="350" cy="772" fill="hsl(103, 50%, 50%)" opacity="0.59"></circle><circle r="9.5" cx="246" cy="457" stroke-width="2" stroke="hsl(98, 50%, 50%)" fill="none" opacity="0.87"></circle><circle r="21.5" cx="33" cy="575" stroke-width="2" stroke="hsl(139, 50%, 50%)" fill="none" opacity="0.76"></circle><circle r="19.5" cx="770" cy="101" fill="hsl(142, 50%, 50%)" opacity="0.15"></circle><circle r="17.5" cx="102" cy="201" fill="hsl(131, 50%, 50%)" opacity="0.46"></circle><circle r="11.5" cx="341" cy="360" stroke-width="2" stroke="hsl(103, 50%, 50%)" fill="none" opacity="0.36"></circle><circle r="10.5" cx="311" cy="150" fill="hsl(101, 50%, 50%)" opacity="0.93"></circle><circle r="19" cx="605" cy="236" stroke-width="2" stroke="hsl(145, 50%, 50%)" fill="none" opacity="0.61"></circle><circle r="19.5" cx="664" cy="195" fill="hsl(145, 50%, 50%)" opacity="0.80"></circle><circle r="12.5" cx="440" cy="138" fill="hsl(112, 50%, 50%)" opacity="0.23"></circle><circle r="13" cx="424" cy="771" fill="hsl(116, 50%, 50%)" opacity="0.42"></circle><circle r="15" cx="453" cy="576" fill="hsl(122, 50%, 50%)" opacity="0.92"></circle><circle r="12" cx="216" cy="306" fill="hsl(101, 50%, 50%)" opacity="0.56"></circle><circle r="17" cx="573" cy="133" stroke-width="2" stroke="hsl(136, 50%, 50%)" fill="none" opacity="0.23"></circle><circle r="19.5" cx="26" cy="106" fill="hsl(147, 50%, 50%)" opacity="0.77"></circle><circle r="19.5" cx="33" cy="236" stroke-width="2" stroke="hsl(139, 50%, 50%)" fill="none" opacity="0.83"></circle><circle r="18" cx="720" cy="213" stroke-width="2" stroke="hsl(137, 50%, 50%)" fill="none" opacity="0.50"></circle><circle r="11.5" cx="777" cy="732" fill="hsl(122, 50%, 50%)" opacity="0.64"></circle><circle r="17" cx="563" cy="453" stroke-width="2" stroke="hsl(141, 50%, 50%)" fill="none" opacity="0.75"></circle><circle r="20.5" cx="660" cy="722" stroke-width="2" stroke="hsl(146, 50%, 50%)" fill="none" opacity="0.31"></circle><circle r="18" cx="570" cy="554" fill="hsl(141, 50%, 50%)" opacity="0.54"></circle><circle r="10.5" cx="242" cy="712" fill="hsl(98, 50%, 50%)" opacity="0.95"></circle><circle r="20.5" cx="632" cy="557" fill="hsl(146, 50%, 50%)" opacity="0.64"></circle><circle r="17" cx="721" cy="727" stroke-width="2" stroke="hsl(137, 50%, 50%)" fill="none" opacity="0.18"></circle><circle r="10" cx="234" cy="380" stroke-width="2" stroke="hsl(99, 50%, 50%)" fill="none" opacity="0.95"></circle><circle r="12" cx="353" cy="661" fill="hsl(105, 50%, 50%)" opacity="0.92"></circle><circle r="20" cx="664" cy="256" stroke-width="2" stroke="hsl(145, 50%, 50%)" fill="none" opacity="0.86"></circle><circle r="21" cx="88" cy="139" stroke-width="2" stroke="hsl(146, 50%, 50%)" fill="none" opacity="0.13"></circle><circle r="13" cx="418" cy="669" stroke-width="2" stroke="hsl(116, 50%, 50%)" fill="none" opacity="0.54"></circle><circle r="10" cx="281" cy="331" stroke-width="2" stroke="hsl(97, 50%, 50%)" fill="none" opacity="0.43"></circle><circle r="16" cx="693" cy="775" stroke-width="2" stroke="hsl(142, 50%, 50%)" fill="none" opacity="0.85"></circle><circle r="20.5" cx="609" cy="494" fill="hsl(145, 50%, 50%)" opacity="0.31"></circle><circle r="15.5" cx="137" cy="490" fill="hsl(125, 50%, 50%)" opacity="0.35"></circle><circle r="19" cx="42" cy="770" fill="hsl(139, 50%, 50%)" opacity="0.26"></circle><circle r="19" cx="90" cy="619" fill="hsl(134, 50%, 50%)" opacity="0.42"></circle><circle r="12.5" cx="765" cy="684" stroke-width="2" stroke="hsl(126, 50%, 50%)" fill="none" opacity="0.95"></circle><circle r="16" cx="526" cy="414" stroke-width="2" stroke="hsl(135, 50%, 50%)" fill="none" opacity="0.30"></circle><circle r="17.5" cx="28" cy="435" fill="hsl(139, 50%, 50%)" opacity="0.99"></circle><circle r="19.5" cx="608" cy="178" fill="hsl(145, 50%, 50%)" opacity="0.46"></circle><circle r="11" cx="315" cy="716" fill="hsl(100, 50%, 50%)" opacity="0.32"></circle><circle r="10.5" cx="337" cy="287" stroke-width="2" stroke="hsl(102, 50%, 50%)" fill="none" opacity="0.64"></circle><circle r="11.5" cx="763" cy="778" stroke-width="2" stroke="hsl(126, 50%, 50%)" fill="none" opacity="0.11"></circle><circle r="16" cx="463" cy="711" stroke-width="2" stroke="hsl(124, 50%, 50%)" fill="none" opacity="0.12"></circle><circle r="12.5" cx="383" cy="237" stroke-width="2" stroke="hsl(110, 50%, 50%)" fill="none" opacity="0.68"></circle><circle r="12.5" cx="774" cy="637" fill="hsl(126, 50%, 50%)" opacity="0.88"></circle><circle r="12.5" cx="766" cy="586" stroke-width="2" stroke="hsl(126, 50%, 50%)" fill="none" opacity="0.65"></circle><circle r="15" cx="449" cy="340" fill="hsl(120, 50%, 50%)" opacity="0.79"></circle><circle r="14.5" cx="517" cy="97" stroke-width="2" stroke="hsl(117, 50%, 50%)" fill="none" opacity="0.96"></circle><circle r="16" cx="772" cy="170" fill="hsl(132, 50%, 50%)" opacity="0.77"></circle><circle r="14.5" cx="772" cy="427" stroke-width="2" stroke="hsl(126, 50%, 50%)" fill="none" opacity="0.60"></circle><circle r="11" cx="458" cy="81" fill="hsl(105, 50%, 50%)" opacity="0.88"></circle><circle r="19.5" cx="634" cy="667" fill="hsl(146, 50%, 50%)" opacity="0.45"></circle><circle r="14" cx="159" cy="256" fill="hsl(118, 50%, 50%)" opacity="0.22"></circle><circle r="17" cx="514" cy="664" fill="hsl(133, 50%, 50%)" opacity="0.89"></circle><circle r="10" cx="306" cy="474" stroke-width="2" stroke="hsl(98, 50%, 50%)" fill="none" opacity="0.22"></circle><circle r="14" cx="434" cy="199" stroke-width="2" stroke="hsl(118, 50%, 50%)" fill="none" opacity="0.76"></circle><circle r="16" cx="466" cy="406" fill="hsl(124, 50%, 50%)" opacity="0.51"></circle><circle r="16" cx="501" cy="540" stroke-width="2" stroke="hsl(131, 50%, 50%)" fill="none" opacity="0.62"></circle><circle r="14" cx="138" cy="423" stroke-width="2" stroke="hsl(121, 50%, 50%)" fill="none" opacity="0.63"></circle><circle r="17.5" cx="531" cy="720" stroke-width="2" stroke="hsl(135, 50%, 50%)" fill="none" opacity="0.29"></circle><circle r="20.5" cx="707" cy="86" fill="hsl(149, 50%, 50%)" opacity="0.83"></circle><circle r="14.5" cx="772" cy="483" stroke-width="2" stroke="hsl(126, 50%, 50%)" fill="none" opacity="0.75"></circle><circle r="19.5" cx="608" cy="418" stroke-width="2" stroke="hsl(145, 50%, 50%)" fill="none" opacity="0.39"></circle><circle r="12" cx="222" cy="152" fill="hsl(111, 50%, 50%)" opacity="0.71"></circle><circle r="10.5" cx="193" cy="439" stroke-width="2" stroke="hsl(107, 50%, 50%)" fill="none" opacity="0.57"></circle><circle r="18.5" cx="697" cy="28" stroke-width="2" stroke="hsl(141, 50%, 50%)" fill="none" opacity="0.27"></circle><circle r="19.5" cx="621" cy="354" fill="hsl(146, 50%, 50%)" opacity="0.22"></circle><circle r="12" cx="387" cy="720" stroke-width="2" stroke="hsl(110, 50%, 50%)" fill="none" opacity="0.18"></circle><circle r="19.5" cx="668" cy="509" stroke-width="2" stroke="hsl(145, 50%, 50%)" fill="none" opacity="0.99"></circle><circle r="20" cx="32" cy="645" stroke-width="2" stroke="hsl(139, 50%, 50%)" fill="none" opacity="0.49"></circle><circle r="11" cx="333" cy="92" stroke-width="2" stroke="hsl(104, 50%, 50%)" fill="none" opacity="0.13"></circle><circle r="15" cx="169" cy="708" stroke-width="2" stroke="hsl(114, 50%, 50%)" fill="none" opacity="0.71"></circle><circle r="16.5" cx="717" cy="623" fill="hsl(137, 50%, 50%)" opacity="0.27"></circle><circle r="17.5" cx="546" cy="254" stroke-width="2" stroke="hsl(137, 50%, 50%)" fill="none" opacity="0.32"></circle><circle r="18" cx="93" cy="263" stroke-width="2" stroke="hsl(134, 50%, 50%)" fill="none" opacity="0.80"></circle><circle r="11.5" cx="355" cy="428" stroke-width="2" stroke="hsl(105, 50%, 50%)" fill="none" opacity="0.23"></circle><circle r="20" cx="597" cy="720" fill="hsl(144, 50%, 50%)" opacity="0.33"></circle><circle r="21.5" cx="97" cy="697" fill="hsl(134, 50%, 50%)" opacity="0.13"></circle><circle r="18" cx="698" cy="568" fill="hsl(142, 50%, 50%)" opacity="0.39"></circle><circle r="15" cx="439" cy="513" fill="hsl(120, 50%, 50%)" opacity="0.64"></circle><circle r="18.5" cx="668" cy="386" stroke-width="2" stroke="hsl(145, 50%, 50%)" fill="none" opacity="0.55"></circle><circle r="17" cx="236" cy="32" fill="hsl(129, 50%, 50%)" opacity="0.14"></circle><circle r="18" cx="721" cy="343" fill="hsl(137, 50%, 50%)" opacity="0.93"></circle><circle r="18.5" cx="28" cy="301" fill="hsl(139, 50%, 50%)" opacity="0.88"></circle><circle r="17.5" cx="493" cy="292" stroke-width="2" stroke="hsl(128, 50%, 50%)" fill="none" opacity="0.96"></circle><circle r="19" cx="670" cy="318" stroke-width="2" stroke="hsl(145, 50%, 50%)" fill="none" opacity="0.20"></circle><circle r="21.5" cx="136" cy="83" fill="hsl(149, 50%, 50%)" opacity="0.28"></circle><circle r="15" cx="578" cy="77" stroke-width="2" stroke="hsl(131, 50%, 50%)" fill="none" opacity="0.60"></circle><circle r="18" cx="568" cy="371" stroke-width="2" stroke="hsl(141, 50%, 50%)" fill="none" opacity="0.67"></circle><circle r="18" cx="640" cy="82" stroke-width="2" stroke="hsl(145, 50%, 50%)" fill="none" opacity="0.90"></circle><circle r="18.5" cx="555" cy="312" stroke-width="2" stroke="hsl(139, 50%, 50%)" fill="none" opacity="0.76"></circle><circle r="11.5" cx="560" cy="27" stroke-width="2" stroke="hsl(115, 50%, 50%)" fill="none" opacity="0.29"></circle><circle r="18" cx="490" cy="470" stroke-width="2" stroke="hsl(128, 50%, 50%)" fill="none" opacity="0.13"></circle><circle r="10" cx="292" cy="405" stroke-width="2" stroke="hsl(97, 50%, 50%)" fill="none" opacity="0.63"></circle><circle r="19" cx="170" cy="29" fill="hsl(143, 50%, 50%)" opacity="0.37"></circle><circle r="11.5" cx="218" cy="649" fill="hsl(101, 50%, 50%)" opacity="0.29"></circle><circle r="18.5" cx="84" cy="529" stroke-width="2" stroke="hsl(136, 50%, 50%)" fill="none" opacity="0.39"></circle><circle r="18" cx="719" cy="405" stroke-width="2" stroke="hsl(137, 50%, 50%)" fill="none" opacity="0.72"></circle><circle r="19" cx="31" cy="32" stroke-width="2" stroke="hsl(135, 50%, 50%)" fill="none" opacity="0.12"></circle><circle r="13" cx="376" cy="162" fill="hsl(106, 50%, 50%)" opacity="0.17"></circle><circle r="19" cx="525" cy="601" fill="hsl(135, 50%, 50%)" opacity="0.46"></circle><circle r="15.5" cx="629" cy="27" stroke-width="2" stroke="hsl(133, 50%, 50%)" fill="none" opacity="0.36"></circle><circle r="17" cx="560" cy="773" stroke-width="2" stroke="hsl(139, 50%, 50%)" fill="none" opacity="0.89"></circle><circle r="11" cx="497" cy="30" fill="hsl(104, 50%, 50%)" opacity="0.99"></circle><circle r="12.5" cx="171" cy="197" fill="hsl(114, 50%, 50%)" opacity="0.61"></circle><circle r="15.5" cx="492" cy="771" fill="hsl(128, 50%, 50%)" opacity="0.56"></circle><circle r="12" cx="384" cy="552" stroke-width="2" stroke="hsl(110, 50%, 50%)" fill="none" opacity="0.71"></circle><circle r="14" cx="422" cy="451" fill="hsl(116, 50%, 50%)" opacity="0.17"></circle><circle r="20.5" cx="766" cy="33" fill="hsl(137, 50%, 50%)" opacity="0.38"></circle><circle r="16.5" cx="153" cy="142" stroke-width="2" stroke="hsl(132, 50%, 50%)" fill="none" opacity="0.77"></circle><circle r="12" cx="191" cy="513" fill="hsl(107, 50%, 50%)" opacity="0.51"></circle><circle r="17" cx="98" cy="381" fill="hsl(134, 50%, 50%)" opacity="0.35"></circle><circle r="13" cx="391" cy="318" fill="hsl(112, 50%, 50%)" opacity="0.99"></circle><circle r="14" cx="773" cy="304" fill="hsl(126, 50%, 50%)" opacity="0.93"></circle><circle r="11.5" cx="198" cy="770" fill="hsl(107, 50%, 50%)" opacity="0.94"></circle><circle r="8.5" cx="275" cy="771" stroke-width="2" stroke="hsl(96, 50%, 50%)" fill="none" opacity="0.93"></circle><circle r="19" cx="32" cy="710" fill="hsl(139, 50%, 50%)" opacity="0.18"></circle><circle r="13.5" cx="403" cy="387" fill="hsl(114, 50%, 50%)" opacity="0.66"></circle><circle r="16.5" cx="724" cy="520" fill="hsl(137, 50%, 50%)" opacity="0.88"></circle><circle r="13" cx="174" cy="368" stroke-width="2" stroke="hsl(114, 50%, 50%)" fill="none" opacity="0.73"></circle><circle r="19.5" cx="82" cy="453" fill="hsl(136, 50%, 50%)" opacity="0.96"></circle><circle r="10.5" cx="317" cy="538" fill="hsl(100, 50%, 50%)" opacity="0.91"></circle><circle r="10.5" cx="363" cy="31" stroke-width="2" stroke="hsl(103, 50%, 50%)" fill="none" opacity="0.12"></circle><circle r="18" cx="120" cy="767" fill="hsl(128, 50%, 50%)" opacity="0.39"></circle><circle r="17.5" cx="101" cy="26" fill="hsl(147, 50%, 50%)" opacity="0.16"></circle><circle r="16.5" cx="545" cy="504" fill="hsl(137, 50%, 50%)" opacity="0.57"></circle><circle r="19" cx="29" cy="504" fill="hsl(139, 50%, 50%)" opacity="0.89"></circle><circle r="9.5" cx="427" cy="29" fill="hsl(101, 50%, 50%)" opacity="0.34"></circle><circle r="19" cx="593" cy="611" fill="hsl(144, 50%, 50%)" opacity="0.13"></circle><circle r="10" cx="327" cy="216" stroke-width="2" stroke="hsl(102, 50%, 50%)" fill="none" opacity="0.48"></circle><circle r="21" cx="75" cy="78" fill="hsl(151, 50%, 50%)" opacity="0.64"></circle><circle r="16.5" cx="135" cy="566" stroke-width="2" stroke="hsl(125, 50%, 50%)" fill="none" opacity="0.71"></circle><circle r="18.5" cx="201" cy="90" fill="hsl(130, 50%, 50%)" opacity="0.89"></circle><circle r="20" cx="32" cy="371" fill="hsl(139, 50%, 50%)" opacity="0.66"></circle><circle r="12" cx="370" cy="491" stroke-width="2" stroke="hsl(108, 50%, 50%)" fill="none" opacity="0.23"></circle><circle r="10" cx="264" cy="591" fill="hsl(96, 50%, 50%)" opacity="0.52"></circle><circle r="17.5" cx="82" cy="324" fill="hsl(136, 50%, 50%)" opacity="0.31"></circle><circle r="18.5" cx="572" cy="665" stroke-width="2" stroke="hsl(141, 50%, 50%)" fill="none" opacity="0.34"></circle><circle r="12.5" cx="399" cy="611" fill="hsl(112, 50%, 50%)" opacity="0.62"></circle><circle r="10" cx="277" cy="264" fill="hsl(97, 50%, 50%)" opacity="0.21"></circle><circle r="20" cx="658" cy="448" fill="hsl(146, 50%, 50%)" opacity="0.85"></circle></svg>